<?xml version="1.0" encoding="UTF-8" standalone="no"?>
<!-- Created with Inkscape (http://www.inkscape.org/) -->
<svg id="Слой_1" xmlns:rdf="http://www.w3.org/1999/02/22-rdf-syntax-ns#" xmlns="http://www.w3.org/2000/svg" xml:space="preserve" height="100%" width="100%" version="1.1" xmlns:cc="http://creativecommons.org/ns#" viewBox="0 0 793.15625 434.78125" xmlns:dc="http://purl.org/dc/elements/1.1/"><metadata id="metadata401"><rdf:RDF><cc:Work rdf:about=""><dc:format>image/svg+xml</dc:format><dc:type rdf:resource="http://purl.org/dc/dcmitype/StillImage"/><dc:title/></cc:Work></rdf:RDF></metadata>
<style id="style3" type="text/css">
	.area{
		fill:url(#areaGradient);
		stroke:#ffffff;
		stroke-width:0.5
	}
	.area.hover{
		fill:#34495e;
		cursor:pointer;
	}
	.marker{
		fill:url(#markerGradient);
	}
	.count{
		font-size:18px;
		font-family:Robotobold, Roboto-Bold, Arial;
		fill:#ffffff;
	}
	.title{
		font-size:10px;
		font-family:Robotolight, Roboto-Light, Arial;
		fill:#ffffff;
	}
</style>
<defs>
	<linearGradient id="areaGradient">
	  <stop stop-color="#20c38a" offset=".05"/>
	  <stop stop-color="#0aaca9" offset=".95"/>
	</linearGradient>
	<linearGradient id="markerGradient">
	  <stop stop-color="#ffe700" offset=".05"/>
	  <stop stop-color="#ffcf00" offset=".95"/>
	</linearGradient>
</defs>
<g id="g7" transform="translate(.3125 .28125)">
	<path id="KZ-AKM" class="area" d="m379.5 99.6 3.1 0.2 1.6 3.5 2.9-1.3 3.7-0.6 0.1 3.1h6.2l2 1.1 2.2 0.3 1.2-0.7 4.1 1.5-0.2-6.7 4.3-0.1 1.1 1.4 2.8 1.1 2.6 2.2 1.1-1.1-0.5-0.7 0.6-1 0.8 0.6 2.4-2.7-0.2-1-1.2-0.5-0.4-2.2 2.8 0.1 0.8-1.7 0.8-0.5 2.1 0.3 1.4-3.5 2.2-0.9 0.3-1.2 3.7-1.5-1.6-1.9 1.1 0.2-0.9-3.2 3-2.8-1.1-1.6 0.7-0.2 0.1-1.4-0.3-1.1-1.4-0.1 0.3-2.3-2.2-0.2-0.6-1.3-1.1-0.4-0.1-1.1-1.4-2 0.6-0.9 1.4-0.3v-0.8l1-0.8 0.5 0.6 0.6-1.2-1 0.1-0.1-1.7 2.9 0.1 0.4-0.5-1-2.1 1.5 0.1 0.2-0.8 1.9 0.1 0.1 1 2.7-0.2-0.1-1.7 1.9 0.2 0.1 1.4 1.2 0.2 0.2 0.8 0.8 0.2 0.4 2.6 1.3 0.4 0.6-1.5-1.1-0.2-0.3-1.5 0.8-0.1 0.4-1.6 1.1 0.2 0.5-0.9 1-0.1 0.7-0.8 4.2 0.1 0.2 1.5 1.1 0.4 0.2 3.3-0.5 1.1 0.7 0.3 0.4-0.6 2.4 0.6 1.4-0.6 0.2 1.8-0.8 0.5 0.2 0.8-0.8 0.1 0.1 1-0.6 0.5 3.8-0.1 1-0.5 2.1 3.1 0.3 1.5 1.9-0.3-0.4-2.4 1.8-0.3 0.5-2.7 8.2-0.2-0.1 2.9 3.1 0.6 0.2 0.6h1.7l1.7-1.5 1.2-0.2 0.6-1.3h2l-0.1 1.2 4 4.4-1.4 3.4 0.6 1.7-1.2 0.6v1.1l1.2 2.3 5.7 0.7 4.6-0.3 0.9-2.4 3.8-0.8 0.8 0.8 1.8-0.9h2.1l0.6-0.9 0.7-0.1 0.4 3.4 0.8 0.9 0.5 5.8 2.5-1.1 3.7 1.9 2.6-0.1 0.2 1.3 1.5-0.1 1.4 2.7 7.5 0.6 0.1 0.6 1 0.2 0.5 20 0.4 0.9-1.2 0.2-3.3 2.9-0.1 5.9 3.6-1.8 1 2.3 2.3 0.2 1.9 1.1-2.3 1.8-2-0.6-4.3 2.8-0.3 2.2-2.1 2.5-3.3-1-1.3 1.9-0.6-1.7-0.5 0.2 0.3 0.6-1.6 0.4-0.5-0.9-0.9 0.4-0.3 1.6 0.9 0.4 1.2 2.7-0.2 0.6 0.7 0.5 1-2.2 3.5 1.3-2.9 2.8-5.2 1.7 0.7 1.7-2.8 0.7-0.8 1.3-3.1-1.3-1.1 2.1-0.8 0.2 0.4 1.1-1.3 1.5-2.8 0.2-0.1 1-0.7-0.4-1 0.9 0.5 0.7-1.4 1.3 2.1 1.4-1.6 0.8-2.2-1.4-0.8 1.2-1.4 0.5 0.4 2.9-1.3 0.4 0.3 0.9-2.4-1.9-4.1 0.4-0.5 1-1.2-0.4 1.8-2.5-0.4-1.5 0.6-0.8-0.8-1 1.3-1.8-2.2-1.9-1.4 0.1-0.3-1.1-1.3 0.5-0.3-0.9-0.9 0.2v0.8l-2.9 1.2-0.6 2.9h-1.4l-0.6 1.2-1.7-0.2-1.5 1.3 0.4 0.9-2.6 1.8-3 0.7-0.3 6.4-1.4-2.5-4.2 1.9 1.2 3.1-0.6 1.2-2.1 0.3-4.4 2.5-1.2-0.6 0.1-2.2 1.7-2.5-0.4-0.9-0.9 0.3-0.6-1.7-6 1.8-3.5 0.3 0.5-2.5-1.1-0.1-1.3-2.4-1.1 1.1-0.4-1.7-2.6 1.4 0.7 2.2-1.6 1-1.4-0.8 0.1 3-1.3-0.6-2.5 1.3-2.5-1.6-1.1-0.1-0.3-0.8-1.6 0.5-0.7-1.2 1.4-1.5 0.8-3.8 0.9-1.3-0.4-2.6 0.9-0.6 0.3-6.8-6 0.2-0.6 1.1-2.4 0.8-4.2 3.2-1.8-1.4-3.9 0.4 1.3 1.8 0.1 1.7-2.3 1.8-8.5 1.1-4.6 2.9-2.7-4.4 2.2-1.3-1.3-3.2-1.7-0.6-4.8 1.4-5.2-1.8-1.5-1.1-2.4 0.6-1-4.1-1.5 0.7-0.6-0.6-0.9 0.5v-1.2l-0.7 0.6-0.2-2.5-3.6-2.1-1.2 3.9-3.9 0.4-0.7-1.6 1.3-6-4.1-4 1.1-1-1.7-2.2 2.8-2.5-0.9-0.7 1.6-4.8-1.8-3.7-2.4-0.1-1-3.4 3.4 0.3 5.1-2.6 1.7-8.5 2.4-2v-7.2z"/>
	<path id="KZ-AKT" class="area" d="m243 290-4.6 2-1.8 3.2-0.9 4.1-0.8 0.4-0.7 1.9-36 11.1-2.8-20.6-1.8-4.8-1.6-3.1 0.4-1.2-2.3-3-0.2-3.7-15.4-5-5.8-5.9-1.2-4.7-2.9-3.7 2.3-16.3-1.3-2.3-0.4-5.4-3-3.4 0.7-2.7-1.8-5.9 0.6-4.6 0.6-0.4-0.1-4.7-3.5-0.3v-1.2l-1.5-1.1-0.6 1.1-1.3-0.3-0.4 4.3-7.9-1.3 0.8-2-0.8-1.9 0.6-1.7-1.6-6.9-1-0.2-0.9 2.3-1.2-0.6 0.3-0.8-2.4-1.1-1.5-1.4-0.2-2.8 1.3-4.4-0.7-1.6 1.2 0.6 0.8-2 1.5-1.3h1.9l0.4-1.4 4.1 0.3 1.9-1.1-0.4-0.8 1.8-2.8h2.1l-1.1-1.4 1.9-3.3 0.8-2.6-0.3-1.5-2.3-1.7 0.3-4.7-1.5-2 2.1-2.2-0.3-0.9 2.4-2.9-0.3-0.4 1 0.3 2.2-2.8-1.4-5.4 1-2.6 2.3 0.3 1 1.4 0.9-1.1 1.2-0.1 0.4-1.2 0.8-0.4 1 0.8-0.8 2.3 0.7 0.9 5 4.4 2.5-0.3 0.4 0.9 3.6 2.2 0.8-1.3 4.6-2.3 3.1-2.3v-2.3l1.1-3 3.2 0.7 0.8-1.8 1.5-0.2-0.2-2.7 0.6-0.7 2.7 3 1.8 0.6 0.4-1-0.4-2.3 2-0.1 1.4 0.9 1.1-0.7 1.3 0.7 3.1-1.3 0.7 1.6 1.4 0.8 1.1 2.7 3.1 1.6 0.2-1.2 1.6-0.8h1l0.5 1 0.8-0.4 0.6-6.4 1.2-0.3 1.1 1.1 1.1-0.5 0.4 0.7 1.1 0.4 1.7-1.3 0.3 1.4 1.5 0.3 0.8-1.1-0.1-0.9 1.5-0.9 0.7 0.3 0.9 2.3 2.6-0.1 1.2 0.6 0.8 1.6-0.7 2.1 0.6 3.5 1.1 0.3 2.4-0.6 0.2 2 1.3 0.6 1 1.6 6 0.7 1.2 0.8 0.5-0.4 1.7 0.4 1.7-0.4 1.2 1.7-0.5 0.6 0.3 2.1 5.8-2.1 3.3-7.5 1.3-1.1 2.2 0.6 0.2 1.7 2.4 3 3.1 0.7 6.8 0.3 3.5-0.8 8.1-3.3 0.8-1.2 2.3-12.7 1.6-0.6 1.3 0.6 1.4-0.6 0.9-1.5 1.4 2.1 1.1 5.2 1.6 0.6 1.5-1.8 2.9 1.7v1.2l-0.6 0.1-0.6 2.3 3.5 3.4-2.2 1.5 0.4 3.6 2.7-0.8 1.8 9.1 2.6 4.1 0.4 1.6 4.2 6.3 0.4 1.6-0.9 3.3-3.1-2.5-3.1 2.8-0.3 3.2-3.1 1.9 0.6 3.4 0.6 0.9-2.3-0.8-1.6 2.2 4.6 7.2-0.6 0.5-0.4-0.4-2.9 0.5-0.5 1.4 2.5-0.2 1.4 4.8 5.4 5.4 4.2-2.3 2 1.8 0.1 1.1-1.3 1.7 0.7 2.5 6.3 2.2 1.1 1.3 3.2 1.2 3.1 2.2 4.2 8 3.6 6.2 1.8 0.8-4.3 4.8-22.9 16-1.5 0.5-0.9-1.2-5.6-0.9 0.8-1.9-5.4-6.8-2.4 0.4-4.9-8.1-11.8 2.7-6.7 17.9-8.1-0.7-0.6 6.2-6 0.5-7.8 7.3-13.5 17.4z"/>
	<path id="KZ-ALM" class="area" d="m620.5 254.8 3.3 2.7 2.4 0.2 1 2.4 8.7-1 6.1 8.5 9.3-3.2 4.2 1.7-0.1 2 12.3 6.1 6 0.1 1.1 1.7 2-0.7 1.2 2.2 0.9-1.2h0.6l-0.7 1.1 0.6 0.1 1.4 0.5 1.1-1.2-0.4 1-1 0.7 1.1 0.1-0.7 0.9 6.4 7.5 1.5 5.8 3.2 3.4-0.4 5.8 0.7 0.6 2-0.7 2.8 2.1 3.6 1.1 0.5 2-0.7 3.5-2.1 3-3.5-2.9-1-0.3-5.8 2.2-1.1-1.4-1.5 0.1-0.6-2.8-1.9-1.7-1.2 0.4-2.7 2.2-1 0.2-0.4-0.5-0.9 0.9-0.8-0.3-0.6 0.6h-1.4l-1.1 1-1.1-0.2-0.6 1.2-2.4 0.2-1.2 1-3.1-1.2-0.6 1-1.8 0.7-2.6-0.2-1.7 2-1.4-0.6-1.7 1-2.6-0.5v1.1l-0.6-0.1-4.1 3.3 2.3 0.4 0.6 1.7 0.8 0.4 4.8-1.1 0.2 0.7 1-0.2 0.5 0.9 2.3 1.5 0.1 0.7-2.5 1.4 0.8 1.3-1.2 3.5 1.4 9.5 2 7.9 4.4 10-1.6 4.1 1.9 0.3 0.8 3-0.4 0.8-3.6 0.5-4 2.4 0.3 1.4 1.5 1.2 1.7 0.4 0.4 0.9-1.7 0.3-2 1.4h-2.7l-0.8 3.3-1 1.8 0.8 2.3 1.3 0.8-1.3 1.4 0.3 2.9 0.9 0.6-0.2 0.8 0.5 0.6-0.2 1-0.6 0.4-0.9-0.3-1.5 0.7v-1.8l-0.7-1.5-2-1.2-0.8-1.6-1.2-0.1-0.4 0.5-0.3-0.6-3.5-0.9-0.9 0.7-2.1-0.1-2.9-3.5-3-1.5-0.8-1.4v-2l-1.5 0.4-0.5 0.8-0.9-1h-1.9l-4-1.5-0.7 0.3-0.6-0.7-2-0.5-1.2-1-1.7 0.7-0.6-0.2-0.8 0.8-3-0.7-0.4 0.6-1-0.2-0.9 0.7-0.7-0.8-1 0.5-0.6-0.7-2.4-0.3-0.6-0.7-6.5-0.7-3.7 0.6-1.6-1.2-4.8-0.6h-1.6l-1.8 1-0.6 1.1-4-0.4-0.6 0.8-2.7 0.6-1.5-1.4-4.5 0.3-2.1-1.2-2.2 0.6-0.4-0.9-1 0.4-1.1-0.7-1.9 0.2-0.2-0.4 1.1-0.3 0.5-1.1-5.5-2.1-0.5-1.9-0.8-0.3 0.3-1.1-0.7-0.4 0.2-2.3 2.6-3.1-0.7-1.2-2.9 0.4 0.3-0.9-1.8 0.3-3.3-1.1v-1.7l5-4.4 0.5-1.3-0.4-1.9 1.3-2.1-0.1-3.3-2-1.4-1.1-1.5-1.2-0.2-2.2-1.8-4.3-0.5-3.7-3.5-0.6-1 0.9-3.3-1.9-3.2-6.2-4.4-1.1-2.1-0.2-3.3-5.5-0.1-0.4-5.1 5.9 0.4-1.1-2.8-0.8-10.2 1.8-3.1 3.3-6.2 11.7-11.5 11.1-6.4 4.6 0.9 5.9-1.1 6.6 1.2v0.8l1.1 0.3 1.3-1.6 0.5 1.6 0.6-0.7 1.8 0.6 0.6-1.4 6 2-2.1-2.1 1.4-0.3 2 1.1 1.9-0.3 1.9 1 0.6 1.6 1.5-0.2v-1.8l5.9-0.7-0.8-14.7 0.5-1 5 1.1 2.9-3.2 2.5 2.6 3.1-4 3.3 2.9z"/>
	<path id="KZ-ATY" class="area" d="m64.6 283.8h-0.4l-0.8-1.4-0.9-3.1 1.4 0.3 1 1.1 0.3 1.2-0.6 1.9zm74.7-85.6 1.5 1.4 2.4 1.1-0.3 0.8 1.2 0.6 0.9-2.3 1 0.2 1.4 6.9-0.6 1.7 0.8 1.9-0.8 2 7.9 1.3 0.4-4.3 1.3 0.3 0.6-1.1 1.5 1.1v1.2l3.5 0.3 0.1 4.7-0.6 0.4-0.6 4.6 1.8 5.9-0.7 2.7 3 3.4 0.4 5.4 1.3 2.3-2.3 16.3 2.9 3.7 1.2 4.7 5.8 5.9 15.4 5 0.2 3.7 2.3 3-0.4 1.2 1.6 3.1-1.7-1-1.5 0.1-0.9-0.9-1.3 0.7-2.1-0.6-0.5-1.6-0.9-0.4-1 0.7-2.4-1v-2.4l-0.7-2-0.9-0.1-1.4 1-1.3-0.8-2.4-3.3-4.6 4.5-2.1-0.3-7.7 0.8-3.7 1.5-2.9 0.1-5.6 1.3-0.4 0.6-3-0.4 0.3 1.2-1.1 2-4.4 3.3 2 1.2-3.2 2.4-5 2.1-3-0.4-0.6 1.5-7.1-1.2 1.1-0.3-0.7-0.3-0.1-0.9 0.5-0.8 1.5-0.1-0.9-0.9 1.1-0.5-1.3-1.9 1.3-0.7-2.1-1.8 1.1-0.5-1-0.8 0.2-0.7 1.4-0.3-0.5-1.1 1.2-1.2 0.4 0.5 0.1-0.8-0.6-0.4 0.8-2.4 1.7-1.5-0.6-0.4 0.7-0.2-1.6-1.6 0.1-2.5 0.7-0.7-0.8-0.3-0.1-2-1.5 0.1 0.6-0.6-1-0.7 0.3-1.5-0.5-0.1-1.4 1.3-0.9 1.5-0.3-2.1-1.2 0.2 0.2-1-1.2-0.9 0.9-0.5-0.8-1.4-2.9 0.6-1.2 1-1-0.9-0.5 2.4-0.8 0.5-11.6-3.6 0.1 1.1 1.2 1.1-0.5 1.9-0.2-1.8-1.3-1.2-0.5-1.8-2.1 1.4 1-0.8 0.7-2.1-1.6 1.4 0.4-1.1-1.1-1.3-5.1-0.9-2.8 1.6-0.2 0.7-4.5-0.5-0.8 0.9-0.6-0.1-1.4 2.2-0.6-0.2 0.1-1.1h-0.3l-1.1 1.1-0.9 2.7-0.6-0.4 0.1-1.1-0.9 0.5-0.7-1.9-1.5 2.6-0.2-1.1-0.8 0.3-1.8 3.6-0.3-2.4-1.9 1.8-1.6 3h-2l-0.8 1.2 0.1 1-1.1 1.1-1.4-0.7 0.1 1.4 0.9 0.8h-0.9l1 1.4-2.2-0.9-0.5 0.8-0.8-0.3-0.3 1.7-1.3-1.5 1 2.9-3.3-2.1-0.4 0.4-0.9-2 0.8-0.2-0.9-1.5-1.4-0.3 2.5 4.8-0.9 0.8-0.6-0.5-0.9-3.6-1.7-1.5h-0.9l0.5 1h0.8l0.5 1.5-1.3-1 0.3 0.9-0.5 0.2-0.5-1.9-0.8-0.2 1.3 2.7-7.2-3.5-1-1.7-2-0.7-0.7-1.3h-1.5l-0.3-1-1.2-0.4 0.6-2.1 1.3-1.1 1.5 0.1 1.8 2.4 1 0.1 2.2-0.3 1.8-2.1-0.7-1.9-3.7-5-0.9-2.1-1.8-4.7-0.7-4.6-4.4-0.6-3.8-7-2.5-2.4-7.1 0.5-5.4-2-0.6 4-3.5-2.1-1.6-1.9 0.9-0.6-2.8-4.7 2.8-1.8 0.7 0.1 0.2-0.6-2.2-0.8 0.2-2.8-1.8-1.4 2.9 1 2.3-0.1 27 3.5 5.4 1.5 9.5 3.8-0.2-3 6 0.3 1.1-0.9 3.3 0.1 3.9-4 10.7-7.2h1.2l1.8-1.7 0.8 0.4 1.8-1.1 1.1-3.4 4-0.3 2.3-1.1 8.2 1.4 0.5 1.1-0.7 0.5-0.2 2.4 6.2 1.4 0.7-1.2 0.8-0.1 4.3 2.4 2.1-0.1 1.4-0.8-0.4-1.4 1.3-5.7 2.3-0.1-0.3-7.1 1.7 0.8 1.2-2.7 1.2 0.6h6.8l3-0.9-0.5-1.2 4.9-4.5z"/>
	<path id="KZ-KAR" class="area" d="m528.2 135.5 6.7 2.4 0.1 2.3 0.8 1.3-1.3 4.9 0.1 3-1 0.2-0.5 1.1 0.8 1.3-1.4 1.4 2.9 3.2 5.7-1 1.6-1.3 0.3 0.8 3.2 0.6 1.1 1.3-1.1 0.9 1.3 3.3 1.4-3.4 2.7 2.9 1.1 0.1 1.5 2.6-0.7 0.4 0.5 1.5 2.2 0.9 0.3 1.2-0.7 0.3 0.3 0.6-3.9 1.2v0.7l-1.2 0.8 0.7 2.3 1.3-0.1 0.4 0.8 2-0.6 4-2.9 0.9-1.3 5.7 0.2 1-1.4 0.9-0.4 0.9 0.9 6.8-1.9 2.5 1.5 0.9-0.2 0.9-2.4 0.5 0.3 1.5-0.9 2.2-0.2 2.2 1.3 0.7-1.3-0.1-3 1.2-4.8 2-1.9 3.8-1 3.4 3.6 4.1 0.2 3.2 2 1.2 4.1-1.5 2.1 2.2 1.6-0.4 1.7-2.9 2.4-1.5 2.1-3.6 1.9-1.8 0.1-0.5 2.3 0.6 0.9-0.4 1.8 0.5 1.4-2.1 4.3-9.7 4.1-0.3 1.7 1.6 1.8-0.1 1 1.6 0.5 2.9 2.4v1.9l3.5 2.9-1.9 0.8-0.4-0.6-1.6 0.8-0.3 3.1 1.4 2.7 8-1.3 0.8 2.4-0.8 4.4-3.6 3.7-2.5-0.4-1 0.9 0.2 1.5-1.5 0.5 0.7 1.5 1.7 0.8 0.3 1.3 4 0.2-0.4 1-1.7 0.1-0.5 1.5 2.5 2.3 2-0.1 1.4 1.1-3.6 1.3 1.2 1.7h-1.3l-0.2 2.4h-1l-2.1 6.7 0.8 1.3 1.2 5.9-1.8-0.8-1.8 0.3 0.1 2.2-0.8 2-1.5 0.6 1.7 0.9 1 1.7 1.9 1.4 2.9 1.1 0.9-2.6 1.2-0.8 2.3 1.1 1.9-0.9 0.8 14.7-5.9 0.7v1.8l-1.5 0.2-0.6-1.6-1.9-1-1.9 0.3-2-1.1-1.4 0.3 2.1 2.1-6-2-0.6 1.4-1.8-0.6-0.6 0.7-0.5-1.6-1.3 1.6-1.1-0.3v-0.8l-6.6-1.2-5.9 1.1-4.6-0.9-11.1 6.4-12.3 11.3-1.7 2.8-32.1-0.4-18.6 0.7-46.5 0.2-36.8-0.6-0.3-2.7-0.9-0.3-7.7 0.4-25.4-6.9-3.6-2-3.5-4-4.1-0.4-9.8-5.3-2-0.1-9.8-3.8-0.9-0.9-1.9 1.2-5.8-3.2-2.6 0.2-5.3-4.2-8 1.5 5.4-4.2 22.9-16 4.3-4.8-1.8-0.8-3.6-6.2 5.5-5-1.1-3.5 7.3-1.6-1.5-1.9 0.7-1.1-0.7-1.8 4.1 0.2 1-7.5 15 2.5 1.4-0.8 1.4 0.2 2.2-0.8 1.3-3.2 6-0.2 5.8-6.4 3-0.4 1.3-4.4 2.6 0.3 1-2.6 3-2.7 4.1-2.4 10.8-13-0.9-1.8 0.6-0.6-0.7-1.3 0.7-0.9 3.2-0.4 3.6-1.5 1.4-1.2 1.7-2.7-0.3-0.8-2.1-1.2-0.1-0.6-1.1-0.7-0.1-1.7-1.3-1.8 3.9-0.4 1.8 1.4 4.2-3.2 2.4-0.8 0.6-1.1 6-0.2-0.3 6.8-0.9 0.6 0.4 2.6-0.9 1.3-0.8 3.8-1.4 1.5 0.7 1.2 1.6-0.5 0.3 0.8 1.1 0.1 2.5 1.6 2.5-1.3 1.3 0.6-0.1-3 1.4 0.8 1.6-1-0.7-2.2 2.6-1.4 0.4 1.7 1.1-1.1 1.3 2.4 1.1 0.1-0.5 2.5 3.5-0.3 6-1.8 0.6 1.7 0.9-0.3 0.4 0.9-1.7 2.5-0.1 2.2 1.2 0.6 4.4-2.5 2.1-0.3 0.6-1.2-1.2-3.1 4.2-1.9 1.4 2.5 0.3-6.4 3-0.7 2.6-1.8-0.4-0.9 1.5-1.3 1.7 0.2 0.6-1.2h1.4l0.6-2.9 2.9-1.2v-0.8l0.9-0.2 0.3 0.9 1.3-0.5 0.3 1.1 1.4-0.1 2.2 1.9-1.3 1.8 0.8 1-0.6 0.8 0.4 1.5-1.8 2.5 1.2 0.4 0.5-1 4.1-0.4 2.4 1.9-0.3-0.9 1.3-0.4-0.4-2.9 1.4-0.5 0.8-1.2 2.2 1.4 1.6-0.8-2.1-1.4 1.4-1.3-0.5-0.7 1-0.9 0.7 0.4 0.1-1 2.8-0.2 1.3-1.5-0.4-1.1 0.8-0.2 1.1-2.1 3.1 1.3 0.8-1.3 2.8-0.7-0.7-1.7 5.2-1.7 2.9-2.8-3.4-0.9-1 2.2-0.7-0.5 0.2-0.6-1.2-2.7-0.9-0.4 0.3-1.6 0.9-0.4 0.5 0.9 1.6-0.4-0.3-0.6 0.5-0.2 0.6 1.7 1.3-1.9 3.4 1z"/>
	<path id="KZ-KUS" class="area" d="m378.2 27.5 2.2-0.6 1.4 4.4-0.6 0.8 2.2 6.1-3.7 1.3 3.7 2.3 1.4 0.1 1.1 2.8-7.4 3.4 2 6.5 2.5-0.5v5.3l-2.5 2.7 0.9 2.5 3.3 0.3 0.2 8.7 2.9 1.8-0.5 2.2-2.9-0.6-1.3 1-2.1-0.1-0.9 1 0.7 3.2 1 0.1 0.2 3h-0.4l0.1 3.7-2.1 0.5-0.2 10.2-0.1 7.5-2.4 2-1.7 8.5-5.1 2.6-3.4-0.3 1 3.4 2.4 0.1 1.8 3.7-1.6 4.8 0.9 0.7-2.8 2.5 1.7 2.2-1.1 1 4.1 4-1.3 6 0.7 1.6 3.9-0.4 1.2-3.9 3.6 2.1 0.2 2.5 0.7-0.6v1.2l0.9-0.5 0.6 0.6 1.5-0.7 1 4.1 2.4-0.6 1.5 1.1 5.2 1.8 4.8-1.4 1.7 0.6 1.3 3.2-2 1 2.8 4.3 4.6-2.9 8.5-1.1 2.3-1.8 1.1 0.7 0.1 0.6 2.1 1.2 0.3 0.8-1.7 2.7-1.4 1.2-3.6 1.5-3.2 0.4-0.7 0.9 0.7 1.3-0.6 0.6 0.9 1.8-10.8 13-4.1 2.4-3 2.7-1 2.6-2.6-0.3-1.3 4.4-3 0.4-5.8 6.4-6 0.2-1.3 3.2-2.2 0.8-1.4-0.2-1.4 0.8-15-2.5-1 7.5-4.1-0.2 0.7 1.8-0.7 1.1 1.5 1.9-7.3 1.6 1.1 3.5-5.5 5-4.2-8-3.1-2.2-3.2-1.2-1.1-1.3-6.3-2.2-0.7-2.5 1.3-1.7-0.1-1.1-2-1.8-4.2 2.3-5.4-5.4-1.4-4.8-2.5 0.2 0.5-1.4 2.9-0.5 0.4 0.4 0.6-0.5-4.6-7.2 1.6-2.2 2.3 0.8-0.6-0.9-0.6-3.4 3.1-1.9 0.3-3.2 3.1-2.8 3.1 2.5 0.9-3.3-0.4-1.6-4.2-6.3-0.4-1.6-2.6-4.1-1.8-9.1-2.7 0.8-0.4-3.6 2.2-1.5-3.5-3.4 0.6-2.3 0.6-0.1v-1.2l-2.9-1.7-1.5 1.8-1.6-0.6-1.1-5.2-1.4-2.1-0.9 1.5-1.4 0.6-1.3-0.6-2.3-2.4-1.4-2.7-0.6-0.2-1.9 1-3.3-1.8-3.5-0.3-1.4-2.4-0.2-2.1-5.9-0.1-2.4-0.8-2-1.9 2.3-2.3 0.2-0.8-2.2-0.5-4.3-2.8 0.1 1.2h-0.8l-1.7-2 0.2-1.8 4-0.7 4.5-4.5 4.3-0.4 1.4-2 3.3-1.3 2.1-2-1.8-3.8-0.1-1.5-2.4-0.4-0.2-3.2-2.4-1.1 0.3-3.1 2.4-0.7 0.8-1.4 3.5-3-1-2.2 1.8 0.3 2.3-2 2.6 1.4 1.7-1.5 2.1 0.9 1.5 1.4 1.4-1.1 2.2 0.1 1-0.5 2.5 1.9 2.5-1.7-0.5-3.6-3.6-0.4-2.5-1-2.6-2.9-0.9 1.1-2 0.1-1.1-0.3-1.3-1.4-3-0.2-1.1-0.3-0.5-2.9 1.5-1.7 0.4-2.1 2.3 0.3 0.3 0.9 1 0.3 2.6-1.4 0.2-0.8-0.6-1.6-1-0.5-1.7 0.1-1.1 1-3.9-0.3-1-1-3.6-0.6 0.1-1.6 1.6-0.1 0.8 0.9 0.1-1.9 1.2-0.6 2.1-2.6-0.2-1.2-1.4-1.6-2.8-0.5 0.2-1.1 0.7-0.8 2.3-0.2 0.6 1.2 1.4 0.2 0.4-2-0.6-1.1 0.2-0.7 1-1.3 1.7-0.5 1.3 0.2 0.7 2.1 1.7 0.8 0.6 1.4 0.9-1.9 1.5-0.6 1.1 1.5 1.2-1.6-0.1 0.8h1.1l-0.6 1.4 2.1 0.7 1.2-0.3-1-2.7 1.4-0.9 2.6 0.8 4.5-0.7 1 1-1.5 1 0.5 1.9 2.1 1.2 0.8-2.8 4-3.2 0.3-1.2 5.9 0.3 0.8-0.6v-2l1.1-0.5 3.8 0.3 7.8-2.8 2.9 0.1 0.7-1.2 0.7 1 0.9-1.2 2 0.3 2.1-0.8 2.8 0.1 0.8-1.1 1 0.2 1.8-1.3 2.3-0.3 0.2 1.6 4-2.1 2.9 2.7 2.1-0.1 0.3-0.9-1-2.8 0.2-2.4 3-1.9 2.4 0.3-0.6-1.5 0.4-0.9 3.2 0.2 2.4 1.2 0.9-0.9 0.7-2.2 2-0.6 0.5 0.4-0.4 2.3 0.9 0.5z"/>
	<path id="KZ-KZY" class="area" d="m244 301.6 1.4-1.7 2.6 1 0.4 3.2-0.6 1.6 1 2.8 1.3 1 0.3 1.6-9.6-7 0.7-2.7h2.5zm15.8-0.7h-2.1l0.1-3.5 4.9-0.6 2.5 0.3 0.5 1 3.9 0.4 0.3 0.5h-5.2l-2.8 1.5-2.1 0.4zm41-57.7 1.6 3.1 2.4-0.4 5.4 6.8-0.8 1.9 5.6 0.9 0.9 1.2 1.5-0.5-5.4 4.2 8-1.5 5.2 4.2 2.6-0.2 5.8 3.2 1.9-1.2 0.9 0.9 9.8 3.8h2l9.8 5.3 4 0.4 3.5 4 3.6 2 25.4 6.9 8.6-0.1v5l3.1 2.4 0.6 1.9-1.7 2.9-2 9.5 3.7 3.1 3.1 1.3 0.1 19.1-0.6 2.2 2.1 2 1.2-0.4 2.2 1.3v0.9l2.2 2.7 5.3 3.8-1.4 1.4-0.8-0.6-2.2 1.5 1 2.1-0.2 2.9-0.8 0.4-1.9-1.7v4.2l-1.9 1.9-0.3 3.1-2 0.6 0.6 2.6 0.8-0.5-0.3-1.7 1.1-0.6-0.2 1.2h1.1l-0.3 1.4 0.8 1.8 1.4-0.4-0.1 0.9-8.4 4.4-5.2 1.9-4.9 3.7-5.5 5.5-2.7-1.7-7.9 8.1-1.7-0.4-0.1-15.8-5.3 2.5-3.4-11.5-6.9-6.4-2.4-5.3-1.1-0.9-2 0.2-9.6 4.5-22-2-26.2 5-1-0.7-16.2-19.4-0.9-3-9.1-6.6 1.6-1.2 1-3.9-1.3-4.8-0.8-1-1.2-0.1-1.8-3.7 0.5-6-0.5-1.6-0.9-0.7 1-4.3-0.7-2.9-1-1-0.1-2 1-0.7 1.2-4.4 2.8-0.7 1-2.2 1.8-1.7 2-0.4 1.4-1.3 3.7-1.8 1.2-2.1 0.3-5-0.8-0.1-1.1 0.9-5.7-0.4-1.9-2.4 0.4-4.7-2.4-1.3-2.7 0.1-0.1 1 3.3 1.6v1.3l-1.5 1.3-1.1 0.5-2.8-1.1v3.1l-0.7 0.5-0.1-3.6-0.5-1.1-0.8-0.5h-1.3l-4.4 2.9-0.8 1.1-0.1 2 1.7 2.9 1.4 0.6 5.5-1 0.5 1 2 1.1 3.1-2.1 0.2 1.8 1.5 2.6-0.5 3.4-2.1 1.3-3.7 0.5-3.4-2.2-4.6-0.8-2.6 2.1-1.4 0.1-0.6-0.4 0.4-1.9-0.5-3.4-0.8-1-4.4-0.2-0.6 0.1 0.1 1.1 2.6 4.5-0.4 1.3 0.4 3.4-0.8 2.3h-1.3l-0.8 2.4-0.7 0.6-0.9-0.3-3.2 0.5 0.1-2.8 2.3-3.4-0.8-0.6-0.9-0.5-1.9 1.5-1.2 0.1-2.1-0.6 13.5-17.9 7.8-7.3 6-0.5 0.6-6.2 8.1 0.7 6.7-17.9 11.8-2.7 3.3 5z"/>
	<path id="KZ-MAN" class="area" d="m79.6 322.3h0.9l-1.3 1.4v-2.5l0.4 1.1zm1.4-3.5 0.8-0.7 0.5 0.7v1.6l0.9 0.5-1.8 0.2 0.4-0.6-0.5-0.2 0.2-0.8-1.5-1 0.5-0.7-0.2 0.5 0.7 0.5zm-12.1-3.2 1.1 0.5-1 0.1-0.5 0.6 0.3 2.3 0.7 0.2-0.2 0.8 0.5 0.7 1.2 0.6 1.2-0.4-0.3 1-2.4-0.9-0.8-1.2-0.7-2.2 0.9-2.1zm5.2-0.4 0.8 0.1 0.3 2-1.9 3.4-0.2-2.6-0.8-1.8 1.8-1.1zm45-12.3 0.7-0.1 0.5 1.4 0.3 2.1-0.7 0.2 0.1 0.4-0.9-0.3-1.7-2.5 1.1-1-0.3-0.7 0.9 0.5zm3.3-7.2 7.1 1.2 0.6-1.5 3 0.4 5-2.1 3.2-2.4-2-1.2 4.4-3.3 1.1-2-0.3-1.2 3 0.4 0.4-0.6 5.6-1.3 2.9-0.1 3.7-1.5 7.7-0.8 2.1 0.3 4.6-4.5 2.4 3.3 1.3 0.8 1.4-1 0.9 0.1 0.7 2v2.4l2.4 1 1-0.7 0.9 0.4 0.5 1.6 2.1 0.6 1.3-0.7 0.9 0.9 1.5-0.1 1.7 1 1.8 4.9 2.8 20.6-13.8 4.5 0.1 97.6-2.6-0.1-1.1 1.1-0.8-0.5-1.9 0.4-1.2 1.1-0.8-1.1-0.6 0.9-1.4-0.7-4.4-4.8-3.2-6.4-2.3-2.9 0.1-2.3-2.4-2.9-12.6-8.3-4.6 0.1-7.1 1.1-10.7 4-11.5 9.7 1-3.7-1.3-4.4 0.3-2 2.6-3.9 2.2-6.5-0.7-2.1-1.8-2.2 0.4-0.6 0.2 1 1.8 1.8 0.6 1.6 0.7-1.2-0.1-2.8-1.7-0.7-0.7 0.3-0.1-1.6-2.7-0.8-2.3 0.1-1.2 1.1-1.1-1.8-1-0.5-2.1 0.1-3.1 1-2.8-5.2-2.2-2.1-0.1-2-7.3 0.8 0.9-7-0.6-3-1.4-2.3-1.1-0.4-2.6-4.5-0.7-3.9-2.4-2.3 0.2-1.8-0.9-2.8-3.2-1.8-5.1-0.6-2.6-1.5-0.7-1.3-0.3-5 0.8 1.1 0.9-2.8 2.8 0.6 2.6-0.3 0.7 0.6 2 0.2 1.5-0.8 1.8 0.7 0.9 1.3 1 0.1v1l1.7 1.2h2.1l1.7-1.8 1.7-0.4 0.1 0.8 0.8 0.5 0.7-0.6 1.7 0.2-0.1-0.7-1.9-1.1-3.2 0.2 0.3-1-0.6 0.3v-0.9l-1.6-2.7-3.6-2.5-0.5 0.6-1.6-0.4-0.2-1.9 1.8-2.4 1.8-0.3 2.3-2 1.4 0.4 0.1-3.9 1.3-2.6 1.8-1.9 0.9 0.5 2.3-0.3 2.3-1.4 0.8-1.3 4 1.5 2.1-0.5 4.5 0.1 3.2-0.8 2.6 0.4 1.4 1.6 1.2-0.2 1.9 0.6-1.3-0.9 0.3-0.4-0.8-1.8 0.2-1 3 1.3 1.8 1.6-1.7-2.4h-1l-1.6-1.2 0.7-1.1 2.1-0.3-0.4-1.2-2.1 1.6-0.2-1.1-0.6-0.1 1.2-1.5 1.8 0.7-2-2.2 0.9-0.5-0.4-0.5 1.6-0.4-1.6-0.5z"/>
	<path id="KZ-PAV" class="area" d="m587.7 35.8 1.3 0.2 0.4 1.8-0.6 1 0.1 1.5-1.6 1.4-0.2 1.1-1.8 1.1-0.9-1.1-3.5-0.3 0.1 1.2 1.3 1.7 1 2.9 4.2 4 15.5 12.7 6.6 6.6 10.3 16.9 9.5 18.2 4.4 7.3 3.7 8.1-1.5 0.2-0.5 3.1-3 0.8 0.5 1.7-2.5 2.5-0.5-0.6-3.9 0.6 0.1 1.9 1-0.2-0.1 2.7-1-0.3-4 2.5-2.5 0.8-0.4-1-1.2 0.5-0.3 1.1-2.1 1.1-0.5-0.4-1.7 1.6 2.3 3.4 0.5 3.1 1.5 0.4 2.5 2.6 5.3 3.3-0.7 6.8 1.8 0.5 0.6 4-1.3 1.4-3.3 6.1-2.7 1.2-3.2-0.8-8.3-3.5-1.2-2-1.3 0.8-2.2-1.6 1.5-2.1-1.2-4.1-3.2-2-4.1-0.2-3.4-3.6-3.8 1-2 1.9-1.2 4.8 0.1 3-0.7 1.3-2.2-1.3-2.2 0.2-1.5 0.9-0.5-0.3-0.9 2.4-0.9 0.2-2.5-1.5-6.8 1.9-0.9-0.9-0.9 0.4-1 1.4-5.7-0.2-0.9 1.3-4 2.9-2 0.6-0.4-0.8-1.3 0.1-0.7-2.3 1.2-0.8v-0.7l3.9-1.2-0.3-0.6 0.7-0.3-0.3-1.2-2.2-0.9-0.5-1.5 0.7-0.4-1.5-2.6-1.1-0.1-2.7-2.9-1.4 3.4-1.3-3.3 1.1-0.9-1.1-1.3-3.2-0.6-0.3-0.8-1.6 1.3-5.7 1-2.9-3.2 1.4-1.4-0.8-1.3 0.5-1.1 1-0.2-0.1-3 1.3-4.9-0.8-1.3-0.1-2.3-6.7-2.4 2.1-2.5 0.3-2.2 4.3-2.8 2 0.6 2.3-1.8-1.9-1.1-2.3-0.2-1-2.3-3.6 1.8 0.1-5.9 3.3-2.9 1.2-0.2-0.4-0.9-0.5-20-1-0.2-0.1-0.6-0.1-1.3-3.6-0.3-1-2.6 0.4-1.2 0.9 1.2 1.4 0.2 0.8 1.8 1-0.4-0.3-3.1 1.2-0.5-0.2-1.7 1-0.5-1.1-3-1.9 0.7-0.9-0.3-1.2 3.2h-2.6l-0.5-2.6 1.4-1.6-0.6-1.3-2.2 1.5-0.5-0.5 1.2-0.9 1.9-3.5-0.1-1.2 2.1-1.8-0.9-1.4-1 0.7-0.3-0.8-1.1 0.4-0.1 0.7-2.8 2.4-0.5-2.9 0.4-3.1 1.6 0.8 0.7-0.8-2.6-4.8 2.5-2.5 0.3-1.5 1 0.3 0.5-2.1 1.4 0.2 1.7 1.1 1.4-2 3.3 0.8-0.2 2.3 1.7 0.2 1.1-2 1.4 0.3 0.8 3.4 2.4 0.9 1.6-3.9-0.8-0.5 0.6-2.9 3.3 0.5 0.7-2.8 1.7-0.1 0.8-2 3.3 0.2 0.7 1 8.5-6.1 0.5-1.4-1.6-2.4 2.6-1.3 1.6 0.5 11.9-5.6-0.4-1.1 0.5-1.6 4.3 1 2-0.7h1.8l1.6-2.4 3.8-1.3v1l-2.9 2.1z"/>
	<path id="KZ-SEV" class="area" d="m439.8 2 0.7 1.3 3.4-1 2.3 0.8 3.5-0.1 3.8 1.8 1.5 3 2.1 0.5 1.9 1.8h1.3l1.3-1.3 2.1-0.9 1.4-2.8 3.1 0.8 1.4-1 2.3-0.3 0.7 2.3 3.1 5.3 0.1 4.4-0.5 1.9 1 1.6 0.2 2.2 1.5 2.2 1.9 0.5 1.3 1.2v1.3l-2 1.1-0.1 2.9 0.7 3.4-0.6 2.4-3.6-0.6 0.2 1.6 1.6 0.9-0.7 2 1.1 1 0.7 2 0.9 0.1 1.9-2.2 0.9-0.2 2.9 0.9 0.3 1.6 1.4-0.3 1.4 0.5 1.8-1.2-0.4-1.8 0.8-1.9 5 0.9 1.4 1.6-0.1 0.6 1.5 0.7 0.4-1.7-2.1-1.5 0.9-2-1.7-2.3 1.9-0.2 2.4 1.5 0.3 2.1 0.9 0.6-0.3 1.7 3.6 1.6 0.1 0.9-1.2-0.3-1.3 0.5-0.1 0.5 1.1 1.7-0.8 2.8 2 1.4 1.4-2.6 3.3 1.3-1.1-3.2h-2.8l0.5-2.1 1.1-0.8 7.4 1.2-0.1 1.5 1.3 0.2 0.5 1.7 4.3 1.4 2.2-0.1 0.2-1.1 2.3 1.3-0.3-1.9 2.3-1.2v-1.1l2.3 0.7-1.2 6.3-4.4-0.7-0.7 1.2 0.5 1-2.1 0.6-0.4 3.5-1.4 0.2 0.5 1.2-0.7 2.3 3 1.3-0.4 1.8 1.4 1 2.6 4.8-0.7 0.8-1.6-0.8-0.4 3.1 0.5 2.9 2.8-2.4 0.1-0.7 1.1-0.4 0.3 0.8 1-0.7 0.9 1.4-2.1 1.8 0.1 1.2-1.9 3.5-1.2 0.9 0.5 0.5 2.2-1.5 0.6 1.3-1.4 1.6 0.5 2.6h2.6l1.2-3.2 0.9 0.3 1.9-0.7 1.1 3-1 0.5 0.2 1.7-1.2 0.5 0.3 3.1-1 0.4-0.8-1.8-1.4-0.2-0.9-1.2-0.4 1.2 1 2.6 3.6 0.3 0.1 1.3-7.5-0.6-1.4-2.7-1.5 0.1-0.2-1.3-2.6 0.1-3.7-1.9-2.5 1.1-0.5-5.8-0.8-0.9-0.4-3.4-0.7 0.1-0.6 0.9h-2.1l-1.8 0.9-0.8-0.8-3.8 0.8-0.9 2.4-4.6 0.3-5.7-0.7-1.2-2.3v-1.1l1.2-0.6-0.6-1.7 1.4-3.4-4-4.4 0.1-1.2h-2l-0.6 1.3-1.2 0.2-1.7 1.5h-1.7l-0.2-0.6-3.1-0.6 0.1-2.9-8.2 0.2-0.5 2.7-1.8 0.3 0.4 2.4-1.9 0.3-0.3-1.5-2.1-3.1-1 0.5-3.8 0.1 0.6-0.5-0.1-1 0.8-0.1-0.2-0.8 0.8-0.5-0.2-1.8-1.4 0.6-2.4-0.6-0.4 0.6-0.7-0.3 0.5-1.1-0.2-3.3-1.1-0.4-0.2-1.5-4.2-0.1-0.7 0.8-1 0.1-0.5 0.9-1.1-0.2-0.4 1.6-0.8 0.1 0.3 1.5 1.1 0.2-0.6 1.5-1.3-0.4-0.4-2.6-0.8-0.2-0.2-0.8-1.2-0.2-0.1-1.4-1.9-0.2 0.1 1.7-2.7 0.2-0.1-1-1.9-0.1-0.2 0.8-1.5-0.1 1 2.1-0.4 0.5-2.9-0.1 0.1 1.7 1-0.1-0.6 1.2-0.5-0.6-1 0.8v0.8l-1.4 0.3-0.6 0.9 1.4 2 0.1 1.1 1.1 0.4 0.6 1.3 2.2 0.2-0.3 2.3 1.4 0.1 0.3 1.1-0.1 1.4-0.7 0.2 1.1 1.6-3 2.8 0.9 3.2-1.1-0.2 1.6 1.9-3.7 1.5-0.3 1.2-2.2 0.9-1.4 3.5-2.1-0.3-0.8 0.5-0.8 1.7-2.8-0.1 0.4 2.2 1.2 0.5 0.2 1-2.4 2.7-0.8-0.6-0.6 1 0.5 0.7-1.1 1.1-2.6-2.2-2.8-1.1-1.1-1.4-4.3 0.1 0.2 6.7-4.1-1.5-1.2 0.7-2.2-0.3-2-1.1h-6.6l-0.1-3.1-3.7 0.6-2.9 1.3-1.6-3.5-3.1-0.2 0.2-10.2 2.1-0.5-0.1-3.7h0.4l-0.2-3-1-0.1-0.7-3.2 0.9-1 2.1 0.1 1.3-1 2.9 0.6 0.5-2.2-2.9-1.8-0.2-8.7-3.3-0.3-0.9-2.5 2.5-2.7v-5.3l-2.5 0.5-2-6.5 7.4-3.4-1.1-2.8-1.4-0.1-3.7-2.3 3.7-1.3-2.2-6.1 0.6-0.8-1.4-4.4 4.8-1.8 6.1-1.5 1.5 0.3 1.2-1.4 4.9-0.3 0.8-0.8 3.7-0.7 0.6-1.6 4.6 1 1.6-0.5 2.4-1 0.6-2 1.4-1.2 3 1.1 3.5-0.5 0.3-2.2 1.3-1.6-1.6-1.9-0.5-2.1 2.2-0.3 1 0.7 0.9-0.6 3.7-0.2 0.8 0.4 0.6-2.1 1.1-1 0.4-2.1 0.8-0.6 4.4 2.4 0.1-1.8-0.5-0.6h-1l-0.1-1.4 0.7-1.1 2.1 0.4 1.8 1.6z"/>
	<path id="KZ-VOS" class="area" d="m641.4 130.1 10.3 20.8-0.2-2.8 0.4 0.6h2l0.1-2.3 1-0.6 2.4-0.3 1-1.2h0.8l0.2-3.3-0.8-1.4 0.1-2.4h3.5l0.2-1.8 0.8-1.3 4.5 1.6 0.1 0.7 2.8 1.4 1-1.1 0.4 0.2 0.4 1.8-1.3 3.4-0.3 2.9 1.9 0.1 3.2-1.2h1.3l0.8 2.4-0.4 0.6 1.3 2.1-0.5 2.2 0.6 0.1 5.5-0.4 0.2-1.3 0.4 0.6 1.3-0.8 2.4 0.4 3 1.9 1.1-0.1 1.3-1 5.2 0.6 3.2-2.2 0.5-3.3 0.8-0.2 3.9 1 2.3-2.3 0.3-1.4 1.1 0.4 0.8 1.1 0.9-0.7 2.8 0.3 0.5-0.4-0.3 0.9 3.2 0.8 2.5 1.7 2 0.4 2.9 3.2 0.5 2.2 5.1 6.2-0.5 1.9 0.9 2.9-0.4 1.7 1.7 2.4 1.7 0.1 1.3-0.9 1.6 1.4 5 2.1 0.4 1.1 1.9 0.2 1.3 1 0.7 1.6-0.9 0.2-0.1 2.3 0.7 0.9 1.7 0.5 2 4.7-0.1 2.3 1.5 1.6 2.8 0.8 0.6-0.8 1.9-0.4 2.4 1.4 1.5-0.4 1.4 0.7 1.8-0.2 0.5 0.3-0.2 1.4 0.9 0.3 1-0.8 1.4-0.1 1.2 1.7 0.7-0.6-0.2-1 0.9-2.1 3.7-1.7 3.5-3.5 0.1-1.4h3.7l-0.7 1.8 0.3 1-1.6 1.1-0.6-0.2-0.9 1.2 0.3 1.8 3.3 1.1-0.3 0.5 0.8 0.6-0.2 1.7 1.8 1.1-0.1 1.9 0.8 1.4 1.1 0.2 0.7 1.2 3 0.3 1.8 1.3 0.6 3.1-3.5-1.5-3.2 1.5-1.9-0.4-0.8 1.9-1.9 1.5 0.1 2.5 1.5 2.5-1.2 1 0.2 2.3-1.5 2.2-1 0.4-1.3 1.5-3 1.4-0.8-0.5-1.4 0.3-2 1.9-3.9-0.4-3.4 0.7-2.1 1.7-2.3 6.1v2.1l-1.4 4.2 1.5 9.5-0.3 2.5 2 4.1-0.2 4.1-2.3 1.2-0.9 3.7-5.9 0.2-0.6 1.3-2.3 2.1-1.8 0.5-0.3 1.2-3 1.3-2.2-0.4 1.8-1.9-1.9-2.7-3.5 0.8-1.5-0.9-4.2 0.3-3.4 1-1.2-0.9-7.7-1.8-2.4-2.1-1 0.3-1.1-1.5-2.1-0.1-1.4-1.3-2.8 0.3-0.7 4.4-1.1 1.2-0.9 3.9-1.6 3.6-1.6 7.4-3.3 7.2-0.9 6.9-3.8 8.7-0.7 3.4-2 0.7-0.7-0.6 0.4-5.8-3.2-3.4-1.5-5.8-6.4-7.5 0.7-0.9-1.1-0.1 1-0.7 0.4-1-1.1 1.2-1.4-0.5-0.6-0.1 0.7-1.1h-0.6l-0.9 1.2-1.2-2.2-2 0.7-1.1-1.7-6-0.1-12.3-6.1 0.1-2-4.2-1.7-9.3 3.2-6.1-8.5-8.7 1-1-2.4-2.4-0.2-3.3-2.7-3.3-2.8-3.1 4-2.5-2.6-2.9 3.2-5-1.1-0.5 1-1.9 0.9-2.3-1.1-1.2 0.8-0.9 2.6-2.9-1.1-1.9-1.4-1-1.7-1.7-0.9 1.5-0.6 0.8-2-0.1-2.2 1.8-0.3 1.8 0.8-1.2-5.9-0.8-1.3 2.1-6.7h1l0.2-2.4h1.3l-1.2-1.7 3.6-1.3-1.4-1.1-2 0.1-2.5-2.3 0.5-1.5 1.7-0.1 0.4-1-4-0.2-0.3-1.3-1.7-0.8-0.7-1.5 1.5-0.5-0.2-1.5 1-0.9 2.5 0.4 3.6-3.7 0.8-4.4-0.8-2.4-8 1.3-1.4-2.7 0.3-3.1 1.6-0.8 0.4 0.6 1.9-0.8-3.5-2.9v-1.9l-2.9-2.4-1.6-0.5 0.1-1-1.6-1.8 0.3-1.7 9.7-4.1 2.1-4.3-0.5-1.4 0.4-1.8-0.6-0.9 0.5-2.3 1.8-0.1 3.6-1.9 1.5-2.1 2.9-2.4 0.4-1.7 1.3-0.8 1.2 2 8.3 3.5 3.2 0.8 2.7-1.2 3.3-6.1 1.3-1.4-0.6-4-1.8-0.5 0.7-6.8-5.3-3.3-2.5-2.6-1.5-0.4-0.5-3.1-2.3-3.4 1.7-1.6 0.5 0.4 2.1-1.1 0.3-1.1 1.2-0.5 0.4 1 2.5-0.8 4-2.5 1 0.3 0.1-2.7-1 0.2-0.1-1.9 3.9-0.6 0.5 0.6 2.5-2.5-0.5-1.7 3-0.8 0.5-3.1 1.5-0.2 3.7 8.3z"/>
	<path id="KZ-YUZ" class="area" d="m403.3 290.7 36.8 0.6 3.5 5.8 4.4 12.5 2.4 10.4 1.1 1.6 3.2 20-0.7 0.5-0.4 2.3-1.4 2.1-0.3 3.1-2.4 6.7-2.6 3.8 2 0.7-0.5 0.8 0.8 2.6 1.5-0.4-0.2 1 1.4-0.2 2.1 1.5 0.6-1.5h0.4l0.4 1.6 1.8 0.2 0.5 0.7 0.7-0.3 0.5 0.6-0.4 1.2 1 1 0.7-0.5 0.5 0.4-0.7 1.2 1.2 0.8-0.5 0.5 0.7 0.9-0.2 3.5 0.4 0.5-0.6 1.1 2 1.3 1.4-0.1 0.2 0.9 1.1 0.4 0.1 0.9 0.6 0.2 0.8 1.5 1.1 0.2 1.3 2.3 1.5-0.4v1.6h0.8l1.1 1.6-0.2 2 1.2 0.1-1.9 1.7-0.8-0.4-0.6 0.6-1.7 2-1 2.8-1.3-0.5-0.3-1.3-2.6-1.6-0.4 1.2-1.3 1.3 0.2 1.5-1.8 0.9-1.6 2.5-1.9 1.1-0.4 1-0.9-0.6-0.8 1.8-1.2 0.5-1-0.6-4.1 1.6-2.1 2.6-1.8 0.9-0.3 0.5 0.5 1.1h-4.3l-1.9 1.8-0.5 1.2-1.1-0.1-1.7 3.8-1.6 1.1-2.8 4.7-1.4 0.8-0.2-0.7 0.8-0.5-1.2-0.2-0.2-0.6-1 0.6-2.2-0.4v0.5l1.5 0.1 0.4 0.6-0.3 4.6 3.2 4.7-1.8 0.7-1-0.1-0.3 0.5-2-0.6 0.2-0.5-0.8-0.7-0.8 0.2-1.7-1.5-1.6-0.6-1.5-1.7-3.5-1.7-0.6-0.8 0.3-1 1.7-0.1v-2.2l0.6-0.6-0.6-1.5 1.6-0.8-1.2-0.6-2.3 0.9-3.2-3-7.5 0.1-14.4-1.3-1.5-16.7-10.1-1.2 0.5-11.1 3.1 0.6 7.8-8.1 2.7 1.7 5.5-5.5 4.9-3.6 5.2-1.9 8.4-4.4 0.1-0.9-1.4 0.4-0.8-1.8 0.3-1.4-1.1 0.1 0.2-1.2-1.1 0.6 0.3 1.7-0.8 0.5-0.6-2.6 2-0.6 0.2-3.1 1.9-1.9v-4.2l1.9 1.7 0.8-0.4 0.2-2.9-1-2.1 2.2-1.5 0.8 0.6 1.4-1.4-5.3-3.8-2.2-2.7v-0.9l-2.2-1.3-1.2 0.4-2.1-2 0.6-2.2-0.1-19.1-3.1-1.3-3.7-3.1 2-9.5 1.7-2.9-0.6-1.9-2.8-2.3 0.3-2.3z"/>
	<path id="KZ-ZAP" class="area" d="m85.3 122.3 2.6-0.2 0.8 0.6 4-0.7 0.6 0.8 1.2 0.3 0.1 1.2-0.3 1.5-2.1 0.3 0.6 1.7 3 0.6 1.8-0.9 0.9-1.6 0.4 0.8h0.8l0.4 0.6-0.5 1.1 0.6 0.4 2.8-1.7-0.8-2.1 2-2.9 1.8 0.1 1.5 0.8 1.6-0.1 1-0.9 0.3-1 1.7 0.1 1.3-1.5 0.7 0.4 0.4 3 2.3 3.4 0.2 1.2 0.8 0.5-0.1 0.8 1-0.3v0.5l0.6 0.1-0.2-0.4 0.6 0.1 0.2-0.8 0.6 1-0.1-0.6 1.3-0.2-0.1-0.7 0.5 0.3 0.2-0.8 0.8 0.8 1.5-0.1-0.5 0.9 1.1-0.7 0.5 1.2 0.5-0.8 0.6 0.3 1.3-0.8 1.7 0.3-0.3-1.1 0.9-0.3v0.7l1.3 0.1 0.3 0.7 1.9-0.8 2.3 2.3 1.6 0.3 1.1 1.2-0.1 0.6-0.6 0.1 0.5 0.7-0.4 1.2 1.3 2.5 1.4 0.7 1.1-0.3 0.8 0.7 0.9-0.3 2.7 1.2 0.5 0.9 1.6 0.8v1.8l0.4-0.4 0.5 0.8-0.5 0.6 0.3 0.7 2.3 3.4 2.8 0.4 1.3 0.7-1.7 6.9 1.6 2.6 1.1-0.4 0.3 0.4-2.4 2.9 0.3 0.9-2.1 2.2 1.5 2-0.3 4.7 2.3 1.7 0.3 1.5-0.8 2.6-1.9 3.3 1.1 1.4h-2.1l-1.8 2.8 0.4 0.8-1.9 1.1-4.1-0.3-0.4 1.4h-1.9l-1.5 1.3-0.8 2-1.2-0.6 0.7 1.6-1.3 4.4 0.2 2.8-4.4 4.2 0.5 1.2-3 0.9h-6.7l-1.2-0.6-1.2 2.7-1.7-0.8 0.3 7.1-2.3 0.1-1.4 5.7 0.4 1.4-1.4 0.8h-2.1l-4.3-2.4-0.9 0.1-0.7 1.2-6.2-1.4 0.2-2.4 0.7-0.5-0.5-1.1-8.2-1.4-2.3 1.1-4 0.3-1.1 3.4-1.8 1.1-0.8-0.4-1.8 1.7h-1.2l-10.7 7.2-3.9 4-3.3-0.1-1.1 0.9-6-0.3 0.2 3-9.5-3.8-5.4-1.5-27-3.5-2.3 0.1-2.9-1-1.9-2.1-2.3-0.3-6.1-2.7 5.6-14.5 3.1-1.9 2-3.4 0.3-1.4-0.6-1.3-4.6-3.7 0.7-6.7 0.8-1.5 0.9-7.6 4.9-1.9 3.3-5.1-1.4-3.2 1.3-1.3-0.5-0.5 0.3-2.2 1.7-0.2v-1.2l1.9-2.4 0.8-0.2 1.4 0.7 2.3 1.8 0.5 1.2 0.9 0.3 2.5 3.4 0.9 2.1 2.1 1.7 0.6 2.9 1.7 2.6v1.1l1.8 0.1 1.6 1.6 0.6 0.2 0.2-0.9 5.9-2.7 2.8-2.9-0.5-1.9-1.9-0.8 0.5-2.1-1.5-3.3-1.3-7.7 0.3-0.9-1.8-2.3 1.5-0.4 1.3 1.2 2.4 0.7 2.2-1.8 3-3.8 6.2-2.3v-1.2l-1.7-3.1 1.1-1.8-0.1-1.3 1-1 1.6 0.7 1.8-0.5 2.8 0.3 3.9-3.7 8.4-3.3-0.7-1.4 0.8-0.8-0.4-0.8 2.2-0.2 0.1-1.1h0.5l-0.2-3.1 1.3-2.2 2.9 0.9-1 1.8 2.2-0.6 0.3-2.2-1.1-0.8 0.1-2.4 2.3 0.8 0.5 1.7z"/>
	<path id="KZ-ZHA" class="area" d="m537.3 290.8-1.6 3.4-1.8 3.1 0.8 10.2 1.1 2.8-5.9-0.4 0.4 5.1 5.5 0.1 0.2 3.3 1.1 2.1 6.2 4.4 1.9 3.2-0.9 3.3 0.6 1 3.7 3.5 4.3 0.5 2.2 1.8 1.2 0.2 1.1 1.5 2 1.4 0.1 3.3-1.3 2.1 0.4 1.9-0.5 1.3-5 4.4v1.7l3.3 1.1 1.8-0.3-0.3 0.9 2.9-0.4 0.7 1.2-2.6 3.1-0.2 2.3 0.7 0.4-0.3 1.1 0.8 0.3 0.5 1.9 5.5 2.1-0.5 1.1-1.1 0.3 0.2 0.4 1.9-0.2 1.1 0.7 1-0.4 0.4 0.9-0.8 2.5-1.1 1-2-0.6h-3.6l-2-0.9-2.3 0.4-3.8-2.6-1.6-0.4-0.3-0.7-1.4-0.6-1.9 0.3-2.5-3.4-2.1-1-0.4-0.7-2.8-0.6-0.9-0.9h-2.4l-0.2 1.4-2.1 0.7-1.9-0.9-1.2 2.5-2.2-0.3-4.3 2.3 0.1 0.8-1.2 2.2 0.1 3.3-1.5 4.1 0.3 3 1.5 1.9-0.4 0.8-3-0.1-0.7-0.6-0.2-1.5-3.7-0.8h-3.8l-1.9-0.9-1.4-1.9-2.7-1.1-2.1-0.1-4.2-1.9-3.1 0.6-5-2.5-4.6 1.8-2.1-1.2-2.5 0.3-0.5 0.5-1.7-0.1-1 2.3-1 0.5-0.2 1.7-2.4 0.3-0.6 0.5 1.6 2.2-0.6 0.8-1.3-0.8-0.3 0.3-1.8 3.8-1.1-1.6h-0.8v-1.6l-1.5 0.4-1.3-2.3-1.1-0.2-0.8-1.5-0.6-0.2-0.1-0.9-1.1-0.4-0.2-0.9-1.4 0.1-2-1.3 0.5-1.3-0.4-0.5 0.2-3.5-0.7-0.9 0.5-0.5-1.2-0.8 0.7-1.2-0.5-0.4-0.7 0.5-1-1 0.4-1.2-0.5-0.6-0.7 0.3-0.5-0.7-1.8-0.2-0.4-1.6h-0.4l-0.6 1.5-2.1-1.5-1.4 0.2 0.2-1-1.5 0.4-0.8-2.6 0.5-0.8-2-0.7 2.6-3.8 2.4-6.7 0.3-3.1 1.4-2.1 0.4-2.3 0.7-0.5-3.2-20-1.1-1.6-2.4-10.4-4.4-12.5-3.5-5.8 46.5-0.2 18.6-0.7 32 0.8z"/>
	<path id="KZ-AS" d="m277.5 268.6-0.3 3-0.1 1.7 1.9 2.4 5.7 0.4 1.1-0.9 0.8 0.1-0.3 5-1.2 2.1-3.7 1.8-1.4 1.3-2 0.4-1.8 1.7-1 2.2-1.5 0.3-1.2 0.4-0.2 1-1 3.4-1 0.7 0.1 0.9v1.1l1 1 0.4 1.6 0.3 1.3-0.8 3.3-0.2 1 0.9 0.7 0.5 1.6-0.5 6 1.8 3.7 1.2 0.1 0.8 1 1.3 4.8-1 3.9-1.6 1.2-23.8-17.2-0.3-1.6-1.3-1-1-2.8 0.6-1.6-0.4-3.2-2.6-1-1.4 1.7h-2.5l-0.7 2.7-4.8-3.5-1.8 0.7 0.7-1.9 0.9-0.4 0.9-4.1 1.8-3.2 4.6-1.9 2.1 0.8 1.2-0.1 0.4-0.4 1.5-1.2 0.9 0.5 0.8 0.6-1.2 1.7-0.6 0.9-0.5 0.9-0.1 2.8 3.2-0.5 0.9 0.3 0.7-0.6 0.4-1.1 0.4-1.3h1.3l0.8-2.3-0.4-3.4 0.4-1.3-2.6-4.5-0.1-1.1 0.6-0.1 4.4 0.2 0.8 1 0.5 3.4-0.4 1.9 0.6 0.4 1.4-0.1 2.6-2.1 4.6 0.8 3.4 2.2 3.7-0.5 2.1-1.3 0.5-3.4-1.5-2.6-0.2-1.8-1.6 1.1-1.5 1-2-1.1-0.5-1-5.5 1-1.4-0.6-1.7-2.9 0.1-2 0.8-1.1 4.4-2.9h1.3l0.9 0.9 0.5 1.1 0.1 3.6 0.7-0.5v-3.8l2.8 1.1 1.1-0.5 1.5-1.3v-1.3l-2.3-1.1-1.1-0.5 0.1-1 1.7-0.1h1l2.1 1.3zm-15.5 31.9 2.8-1.5h5.2l-0.3-0.5-3.9-0.4-0.5-1-2.5-0.3-1.6 0.1-3.2 0.5-0.1 1.5-0.1 2.1h2.1l2.1-0.5z" stroke="#fff" stroke-width=".5" fill="url(#areaGradient)"/>
</g>
<g id="g99" transform="translate(.3125 .28125)">
	<g id="g101">
		<g id="g103">
			<path id="path110" class="marker" d="m62.7 157.9c-3.7 0-6.8 3-6.8 6.7 0 1.9 1.9 5.3 1.9 5.3l4.6 7.9 4.8-7.8s2.2-3.2 2.2-5.4c0-3.7-3-6.7-6.7-6.7zm-0.1 10.5c-2.1 0-3.9-1.7-3.9-3.9 0-2.1 1.7-3.9 3.9-3.9 2.1 0 3.9 1.7 3.9 3.9 0 2.1-1.7 3.9-3.9 3.9z"/>
		</g>
		<text id="count_KZ-ZAP" class="count" transform="translate(74.455 177.83)">592</text>
	</g>
	<text id="text114" transform="translate(27.571 190.33)"><tspan y="0" x="0" class="title">Западно-Казахтанская</tspan><tspan y="12" x="34.400002" class="title">область</tspan></text>
</g>
<g id="g120" transform="translate(.3125 .28125)">
	<g id="g122">
		<g id="g124">
			<path id="path131" class="marker" d="m214.4 187.5c-3.7 0-6.8 3-6.8 6.7 0 1.9 1.9 5.3 1.9 5.3l4.6 7.9 4.8-7.8s2.2-3.2 2.2-5.4c0-3.7-3-6.7-6.7-6.7zm-0.1 10.4c-2.1 0-3.9-1.7-3.9-3.9 0-2.1 1.7-3.9 3.9-3.9 2.1 0 3.9 1.7 3.9 3.9s-1.7 3.9-3.9 3.9z"/>
		</g>
		<text id="count_KZ-AKT" class="count" transform="translate(226.18 207.39)">889</text>
	</g>
	<text id="text135" transform="translate(201.24 219.89)"><tspan y="0" x="0" class="title">Актюбинская</tspan><tspan y="12" x="12.4" class="title">область</tspan></text>
</g>
<g id="g141" transform="translate(.3125 .28125)">
	<g id="g143">
		<g id="g145">
			<path id="path152" class="marker" d="m307.9 81.4c-3.7 0-6.8 3-6.8 6.7 0 1.9 1.9 5.3 1.9 5.3l4.6 7.9 4.8-7.8s2.2-3.2 2.2-5.4c0.1-3.7-3-6.7-6.7-6.7zm0 10.5c-2.1 0-3.9-1.7-3.9-3.9 0-2.1 1.7-3.9 3.9-3.9 2.1 0 3.9 1.7 3.9 3.9 0 2.1-1.8 3.9-3.9 3.9z"/>
		</g>
		<text id="count_KZ-KUS" class="count" transform="translate(319.72 101.33)">471</text>
	</g>
	<text id="text156" transform="translate(290.56 113.83)"><tspan y="0" x="0" class="title">Констанайская</tspan><tspan y="12" x="16.700001" class="title">область</tspan></text>
</g>
<g id="g162" transform="translate(.3125 .28125)">
	<g id="g164">
		<g id="g166">
			<path id="path173" class="marker" d="m563.3 84.1c-3.7 0-6.8 3-6.8 6.7 0 1.9 1.9 5.3 1.9 5.3l4.6 7.9 4.8-7.8s2.2-3.2 2.2-5.4c0-3.7-3-6.7-6.7-6.7zm-0.1 10.4c-2.1 0-3.9-1.7-3.9-3.9 0-2.1 1.7-3.9 3.9-3.9 2.1 0 3.9 1.7 3.9 3.9s-1.7 3.9-3.9 3.9z"/>
		</g>
		<text id="count_KZ-PAV" class="count" transform="translate(575.07 104.01)">391</text>
	</g>
	<g id="g177">
		<text id="text179" transform="translate(547.74 116.51)"><tspan y="0" x="0" class="title">Павлодарская</tspan><tspan y="12" x="14.8" class="title">область</tspan></text>
	</g>
</g>
<g id="g185" transform="translate(.3125 .28125)">
	<g id="g187">
		<g id="g189">
			<path id="path196" class="marker" d="m661.8 184.4c-3.7 0-6.8 3-6.8 6.7 0 1.9 1.9 5.3 1.9 5.3l4.6 7.9 4.8-7.8s2.2-3.2 2.2-5.4c0-3.7-3-6.7-6.7-6.7zm-0.1 10.4c-2.1 0-3.9-1.7-3.9-3.9 0-2.1 1.7-3.9 3.9-3.9 2.1 0 3.9 1.7 3.9 3.9s-1.7 3.9-3.9 3.9z"/>
		</g>
		<text id="count_KZ-VOZ" class="count" transform="translate(673.57 204.31)">935</text>
	</g>
	<g id="g200">
		<text id="text202" transform="translate(621.79 216.81)"><tspan y="0" x="0" class="title">Восточно-Казахстанская</tspan><tspan y="12" x="39.299999" class="title">область</tspan></text>
	</g>
</g>
<g id="g208" transform="translate(.3125 .28125)">
	<g id="g210">
		<g id="g212">
			<path id="path219" class="marker" d="m463.3 200.6c-3.7 0-6.8 3-6.8 6.7 0 1.9 1.9 5.3 1.9 5.3l4.6 7.9 4.8-7.8s2.2-3.2 2.2-5.4c0.1-3.7-3-6.7-6.7-6.7zm0 10.4c-2.1 0-3.9-1.7-3.9-3.9 0-2.1 1.7-3.9 3.9-3.9 2.1 0 3.9 1.7 3.9 3.9-0.1 2.2-1.8 3.9-3.9 3.9z"/>
		</g>
		<text id="count_KZ-KAR" class="count" transform="translate(475.1 220.51)">635</text>
	</g>
	<g id="g223">
		<text id="text225" transform="translate(443.28 233.01)"><tspan y="0" x="0" class="title">Карагандинская</tspan><tspan y="12" x="19.299999" class="title">область</tspan></text>
	</g>
</g>
<g id="g231" transform="translate(.3125 .28125)">
	<g id="g233">
		<g id="g235">
			<path id="path242" class="marker" d="m316.2 286.2c-3.7 0-6.8 3-6.8 6.7 0 1.9 1.9 5.3 1.9 5.3l4.6 7.9 4.8-7.8s2.2-3.2 2.2-5.4c0.1-3.7-2.9-6.7-6.7-6.7zm0 10.4c-2.1 0-3.9-1.7-3.9-3.9 0-2.1 1.7-3.9 3.9-3.9 2.1 0 3.9 1.7 3.9 3.9s-1.8 3.9-3.9 3.9z"/>
		</g>
		<text id="count_KZ-KZY" class="count" transform="translate(328.04 306.06)">626</text>
	</g>
	<g id="g246">
		<text id="text248" transform="translate(293.57 318.57)"><tspan y="0" x="0" class="title">Кызылординская</tspan><tspan y="12" x="22" class="title">область</tspan></text>
	</g>
</g>
<g id="g254" transform="translate(.3125 .28125)">
	<g id="g256">
		<g id="g258">
			<path id="path265" class="marker" d="m481.9 311.3c-3.7 0-6.8 3-6.8 6.7 0 1.9 1.9 5.3 1.9 5.3l4.6 7.9 4.8-7.8s2.2-3.2 2.2-5.4c0-3.7-3-6.7-6.7-6.7zm-0.1 10.4c-2.1 0-3.9-1.7-3.9-3.9 0-2.1 1.7-3.9 3.9-3.9 2.1 0 3.9 1.7 3.9 3.9s-1.7 3.9-3.9 3.9z"/>
		</g>
		<text id="count_KZ-ZHA" class="count" transform="translate(493.66 331.17)">750</text>
	</g>
	<g id="g269">
		<text id="text271" transform="translate(466.54 343.67)"><tspan y="0" x="0" class="title">Жамбыльская</tspan><tspan y="12" x="14.6" class="title">область</tspan></text>
	</g>
</g>
<g id="g277" transform="translate(.3125 .28125)">
	<g id="g279">
		<g id="g281">
			<path id="path288" class="marker" d="m419.7 20.3c-3.7 0-6.8 3-6.8 6.7 0 1.9 1.9 5.3 1.9 5.3l4.6 7.9 4.8-7.8s2.2-3.2 2.2-5.4c0-3.7-3-6.7-6.7-6.7zm-0.1 10.4c-2.1 0-3.9-1.7-3.9-3.9 0-2.1 1.7-3.9 3.9-3.9 2.1 0 3.9 1.7 3.9 3.9s-1.7 3.9-3.9 3.9z"/>
		</g>
		<text id="count_KZ-SEV" class="count" transform="translate(431.45 40.209)">348</text>
	</g>
	<text id="text292" transform="translate(387.51 52.71)"><tspan y="0" x="0" class="title">Северо-Казахтанская</tspan><tspan y="12" x="0" class="title">область</tspan></text>
</g>
<g id="g298" transform="translate(.3125 .28125)">
	<g id="g300">
		<g id="g302">
			<path id="path309" class="marker" d="m87.8 225c-3.7 0-6.8 3-6.8 6.7 0 1.9 1.9 5.3 1.9 5.3l4.6 7.9 4.8-7.8s2.2-3.2 2.2-5.4c0.1-3.7-2.9-6.7-6.7-6.7zm0 10.4c-2.1 0-3.9-1.7-3.9-3.9 0-2.1 1.7-3.9 3.9-3.9 2.1 0 3.9 1.7 3.9 3.9 0 2.1-1.8 3.9-3.9 3.9z"/>
		</g>
		<text id="count_KZ-ATY" class="count" transform="translate(99.625 244.85)">1852</text>
	</g>
	<text transform="translate(63.268 257.35)" class="title">Атырауская область</text>
</g>
<g id="g315" transform="translate(.3125 .28125)">
	<g id="g317">
		<g id="g319">
			<path id="path326" class="marker" d="m117.5 316c-3.7 0-6.8 3-6.8 6.7 0 1.9 1.9 5.3 1.9 5.3l4.6 7.9 4.8-7.8s2.2-3.2 2.2-5.4c0-3.7-3-6.7-6.7-6.7zm0 10.4c-2.1 0-3.9-1.7-3.9-3.9 0-2.1 1.7-3.9 3.9-3.9 2.1 0 3.9 1.7 3.9 3.9-0.1 2.2-1.8 3.9-3.9 3.9z"/>
		</g>
		<text id="count_KZ-MAN" class="count" transform="translate(129.29 335.87)">2106</text>
	</g>
	<text id="text330" transform="translate(104.25 348.37)"><tspan y="0" x="0" class="title">Мангыстауская</tspan><tspan y="12" x="17.700001" class="title">область</tspan></text>
</g>
<g id="g336" transform="translate(.3125 .28125)">
	<g id="g338">
		<g id="g340">
			<path id="path347" class="marker" d="m438.6 93.1c-3.7 0-6.8 3-6.8 6.7 0 1.9 1.9 5.3 1.9 5.3l4.6 7.9 4.8-7.8s2.2-3.2 2.2-5.4c0-3.7-3-6.7-6.7-6.7zm-0.1 10.4c-2.1 0-3.9-1.7-3.9-3.9 0-2.1 1.7-3.9 3.9-3.9 2.1 0 3.9 1.7 3.9 3.9 0 2.1-1.7 3.9-3.9 3.9z"/>
		</g>
		<text id="count_KZ-AKM" class="count" transform="translate(450.36 112.95)">1615</text>
	</g>
	<text id="text351" transform="translate(430.56 125.45)"><tspan y="0" x="0" class="title">Акмолинская</tspan><tspan y="12" x="12.4" class="title">область</tspan></text>
</g>
<g id="g357" transform="translate(.3125 .28125)">
	<g id="g359">
		<g id="g361">
			<path id="path368" class="marker" d="m583.5 289.4c-3.7 0-6.8 3-6.8 6.7 0 1.9 1.9 5.3 1.9 5.3l4.6 7.9 4.8-7.8s2.2-3.2 2.2-5.4c0.1-3.7-3-6.7-6.7-6.7zm0 10.4c-2.1 0-3.9-1.7-3.9-3.9 0-2.1 1.7-3.9 3.9-3.9 2.1 0 3.9 1.7 3.9 3.9-0.1 2.2-1.8 3.9-3.9 3.9z"/>
		</g>
		<text id="count_KZ-ALM" class="count" transform="translate(595.31 309.31)">3823</text>
	</g>
	<text id="text372" transform="translate(575.78 321.81)"><tspan y="0" x="0" class="title">Алматинская</tspan><tspan y="12" x="12.2" class="title">область</tspan></text>
</g>
<g id="g378" transform="translate(.3125 .28125)">
	<g id="g380">
		<g id="g382">
			<path id="path389" class="marker" d="m403.8 365.6c-3.7 0-6.8 3-6.8 6.7 0 1.9 1.9 5.3 1.9 5.3l4.6 7.9 4.8-7.8s2.2-3.2 2.2-5.4c0.1-3.7-3-6.7-6.7-6.7zm0 10.4c-2.1 0-3.9-1.7-3.9-3.9 0-2.1 1.7-3.9 3.9-3.9 2.1 0 3.9 1.7 3.9 3.9-0.1 2.1-1.8 3.9-3.9 3.9z"/>
		</g>
		<text id="count_KZ-YUZ" class="count" transform="translate(415.61 385.44)">1269</text>
	</g>
	<text id="text393" transform="translate(379.53 397.94)"><tspan y="0" x="0" class="title">Южно-Казахтанская</tspan><tspan y="12" x="28.700001" class="title">область</tspan></text>
</g>
</svg>
